<?xml version="1.0" standalone="no"?>
<!DOCTYPE svg PUBLIC "-//W3C//DTD SVG 20010904//EN"
 "http://www.w3.org/TR/2001/REC-SVG-20010904/DTD/svg10.dtd">
<svg version="1.0" xmlns="http://www.w3.org/2000/svg"
 width="512.000000pt" height="512.000000pt" viewBox="0 0 512.000000 512.000000"
 preserveAspectRatio="xMidYMid meet">

<g transform="translate(0.000000,512.000000) scale(0.100000,-0.100000)"
fill="#000000" stroke="none">
<path d="M930 3090 c0 -8 307 -813 815 -2135 97 -253 187 -474 200 -491 69
-91 231 -97 312 -11 22 22 138 267 393 832 199 440 368 805 374 811 6 6 355
168 776 359 421 191 786 359 813 373 85 45 131 144 107 231 l-11 41 -1889 0
c-1188 0 -1890 -4 -1890 -10z"/>
</g>
</svg>
